<?xml version="1.0" encoding="UTF-8" standalone="no"?>
<svg
   xmlns:dc="http://purl.org/dc/elements/1.1/"
   xmlns:cc="http://creativecommons.org/ns#"
   xmlns:rdf="http://www.w3.org/1999/02/22-rdf-syntax-ns#"
   xmlns:svg="http://www.w3.org/2000/svg"
   xmlns="http://www.w3.org/2000/svg"
   xmlns:sodipodi="http://sodipodi.sourceforge.net/DTD/sodipodi-0.dtd"
   xmlns:inkscape="http://www.inkscape.org/namespaces/inkscape"
   xml:space="preserve"
   enable-background="new 0 0 2137.322 800"
   viewBox="0 0 770 190"
   height="190"
   width="770"
   y="0px"
   x="0px"
   id="Layer_1"
   version="1.1"
   inkscape:version="0.91 r13725"
   sodipodi:docname="apps.svg"><sodipodi:namedview
     pagecolor="#ffffff"
     bordercolor="#666666"
     borderopacity="1"
     objecttolerance="10"
     gridtolerance="10"
     guidetolerance="10"
     inkscape:pageopacity="0"
     inkscape:pageshadow="2"
     inkscape:window-width="1366"
     inkscape:window-height="744"
     id="namedview48"
     showgrid="false"
     inkscape:zoom="0.8962808"
     inkscape:cx="398.10501"
     inkscape:cy="26.31851"
     inkscape:window-x="0"
     inkscape:window-y="24"
     inkscape:window-maximized="1"
     inkscape:current-layer="text4170" /><metadata
     id="metadata74"><rdf:RDF><cc:Work
         rdf:about=""><dc:format>image/svg+xml</dc:format><dc:type
           rdf:resource="http://purl.org/dc/dcmitype/StillImage" /><dc:title></dc:title></cc:Work></rdf:RDF></metadata><defs
     id="defs72" /><g
     transform="matrix(0.19737376,0,0,0.19737376,8.5551863,33.242668)"
     id="g3"><g
       transform="matrix(1.4560491,0,0,1.4560491,-227.12118,-102.08038)"
       id="g5"
       enable-background="new    "><path
         style="fill:#808080"
         id="path7"
         d="m 914.216,334.496 c 0,4.422 0.017,8.439 0.055,12.05 0.036,3.611 0.092,6.892 0.166,9.839 0.072,1.843 1.363,3.095 3.869,3.758 l 12.491,3.869 0.221,4.754 c -9.507,-0.222 -18.646,-0.332 -27.415,-0.332 -8.918,0 -18.057,0.11 -27.415,0.332 l -0.442,-4.754 13.597,-4.09 c 1.841,-0.515 2.836,-1.658 2.985,-3.427 0.072,-2.947 0.128,-6.246 0.166,-9.894 0.037,-3.648 0.056,-7.684 0.056,-12.105 l 0,-89.651 c 0,-3.758 -0.019,-7.146 -0.056,-10.17 -0.038,-3.021 -0.093,-5.748 -0.166,-8.18 -0.074,-1.916 -0.958,-3.168 -2.653,-3.759 l -13.708,-4.312 -0.221,-4.753 c 9.507,0.295 18.644,0.442 27.415,0.442 8.844,0 17.981,-0.147 27.415,-0.442 l 0.442,4.753 -13.708,4.091 c -1.769,0.441 -2.728,1.585 -2.874,3.427 -0.074,2.58 -0.13,5.399 -0.166,8.456 -0.038,3.06 -0.055,6.395 -0.055,10.005 l 0,90.093 z" /><path
         style="fill:#808080"
         id="path9"
         d="m 1072.958,252.252 -4.422,0.663 -7.627,-28.963 c -8.992,-2.357 -17.43,-3.537 -25.314,-3.537 -18.425,0 -32.795,6.246 -43.112,18.737 -10.319,12.491 -15.477,29.719 -15.477,51.68 0,22.183 5.614,39.814 16.844,52.895 11.229,13.083 26.35,19.622 45.359,19.622 6.384,0 12.659,-0.811 18.826,-2.432 l 0,-29.516 c 0,-3.685 -0.019,-7.037 -0.056,-10.06 -0.038,-3.021 -0.093,-5.784 -0.166,-8.291 -0.074,-1.915 -0.958,-3.131 -2.653,-3.647 l -13.708,-4.312 -0.221,-4.754 c 9.507,0.222 18.625,0.332 27.358,0.332 8.881,0 17.449,-0.11 25.703,-0.332 l 0.553,4.754 -12.049,3.537 c -1.769,0.591 -2.728,1.732 -2.874,3.427 -0.074,2.949 -0.13,5.952 -0.166,9.01 -0.038,3.059 -0.056,6.356 -0.056,9.894 l 0,35.374 -0.662,0.774 c -15.048,3.609 -28.878,5.416 -41.491,5.416 -25.891,0 -46.489,-6.854 -61.794,-20.561 -15.305,-13.708 -22.957,-32.832 -22.957,-57.373 0,-26.088 7.959,-46.52 23.877,-61.297 15.918,-14.774 37.622,-22.164 65.111,-22.164 11.864,0 24.319,1.512 37.363,4.532 l 0.664,0.885 -6.853,35.707 z" /><path
         style="fill:#808080"
         id="path11"
         d="m 1194.998,245.177 0,89.319 c 0,8.697 0.072,15.919 0.221,21.667 0.073,2.064 0.995,3.316 2.764,3.759 l 13.155,3.869 0.221,4.975 c -9.213,-0.222 -16.767,-0.332 -22.662,-0.332 -5.748,0 -13.375,0.11 -22.883,0.332 l -0.441,-4.754 13.597,-4.09 c 1.915,-0.589 2.911,-1.73 2.985,-3.427 0.146,-5.97 0.221,-13.302 0.221,-21.999 l 0,-89.651 c 0,-7.368 -0.074,-13.486 -0.221,-18.35 -0.074,-1.916 -0.959,-3.168 -2.653,-3.759 l -13.708,-4.312 -0.221,-4.753 c 9.507,0.295 17.023,0.442 22.551,0.442 3.316,0 6.669,-0.147 10.06,-0.442 l 92.857,115.961 0,-85.229 c 0,-7.147 -0.075,-13.302 -0.222,-18.461 -0.074,-1.694 -1.033,-2.836 -2.873,-3.427 l -13.045,-3.759 -0.221,-5.085 c 9.432,0.295 17.06,0.442 22.883,0.442 5.895,0 13.447,-0.147 22.661,-0.442 l 0.442,4.753 -13.929,4.312 c -1.696,0.591 -2.581,1.843 -2.653,3.759 -0.148,4.863 -0.221,10.981 -0.221,18.35 l 0,123.589 -9.286,0.885 -99.379,-124.142 z" /><path
         style="fill:#808080"
         id="path13"
         d="m 1424.267,360.585 c -6.265,3.907 -12.713,6.707 -19.346,8.401 -6.632,1.694 -12.786,2.543 -18.461,2.543 -16.213,0 -29.313,-4.624 -39.298,-13.874 -9.987,-9.247 -14.979,-22.09 -14.979,-38.524 0,-16.36 4.657,-29.736 13.974,-40.128 9.314,-10.391 21.767,-15.586 37.355,-15.586 13.063,0 23.23,3.888 30.506,11.662 7.273,7.776 10.912,18.516 10.912,32.224 0,2.064 -0.111,4.164 -0.33,6.301 l -69.756,0 c 0,15.846 3.721,27.177 11.165,33.992 7.442,6.817 19.087,10.226 34.933,10.226 7.074,0 14.628,-0.663 22.661,-1.989 l 0.664,4.752 z m -21.998,-56.156 0,-3.316 c 0,-10.464 -1.643,-17.944 -4.926,-22.44 -3.283,-4.494 -8.174,-6.743 -14.668,-6.743 -8.588,0 -15.156,3.169 -19.703,9.507 -4.546,6.339 -7.107,14.003 -7.685,22.993 l 46.982,0 z" /><path
         style="fill:#808080"
         id="path15"
         d="m 1472.021,278.009 c -0.441,24.91 -0.663,44.991 -0.663,60.246 0,7.666 1.142,12.953 3.427,15.863 2.284,2.912 6.633,4.366 13.045,4.366 5.085,0 11.718,-0.663 19.897,-1.989 l 0.663,4.975 c -12.75,6.411 -24.137,9.617 -34.158,9.617 -8.168,0 -14.244,-2.156 -18.231,-6.467 -3.986,-4.312 -5.978,-10.814 -5.978,-19.512 0,-14.296 0.257,-36.884 0.774,-67.764 l -15.256,-3.758 -0.663,-4.532 17.048,-1.438 7.795,-26.752 c 4.219,-1.105 8.06,-2.173 11.524,-3.205 l 1.107,0.773 c -0.221,8.918 -0.332,17.245 -0.332,24.983 l 0,4.09 33.274,0 0,10.502 -33.273,0 z" /><path
         style="fill:#808080"
         id="path17"
         d="m 1510.05,265.959 c 10.538,0.222 18.35,0.332 23.435,0.332 7.296,0 15.549,-0.11 24.763,-0.332 l 0.441,4.532 -13.044,3.538 c 4.937,16.435 11.165,34.932 18.682,55.493 1.621,4.349 3.132,8.807 4.533,13.375 1.398,-4.494 2.91,-8.916 4.532,-13.265 5.895,-15.771 10.353,-28.078 13.376,-36.922 3.021,-8.844 5.931,-17.502 8.732,-25.978 l 8.07,-0.885 c 2.8,8.918 5.674,17.836 8.622,26.752 2.946,8.918 7.186,21.225 12.713,36.922 1.769,4.717 3.241,9.175 4.421,13.375 1.399,-4.272 2.985,-8.694 4.754,-13.265 8.181,-20.708 14.96,-39.279 20.34,-55.715 l -12.491,-3.537 -0.442,-4.532 c 5.896,0.221 12.16,0.332 18.793,0.332 6.558,0 12.527,-0.111 17.908,-0.332 l 0.553,4.532 -8.844,2.432 c -2.507,0.738 -4.35,2.507 -5.527,5.307 -6.928,16.73 -13.082,31.819 -18.461,45.268 -5.38,13.45 -11.203,28.539 -17.466,45.268 l -9.949,0.995 c -4.496,-12.97 -8.235,-23.526 -11.22,-31.671 -2.985,-8.143 -6.21,-17.005 -9.673,-26.586 -1.476,-3.905 -2.728,-7.664 -3.759,-11.275 -1.18,3.537 -2.506,7.186 -3.979,10.944 -3.759,9.802 -7.24,18.83 -10.446,27.083 -3.206,8.255 -6.947,18.425 -11.221,30.51 l -9.728,0.995 c -6.265,-17.392 -11.977,-32.794 -17.135,-46.207 -5.159,-13.412 -10.981,-28.557 -17.466,-45.434 -1.032,-2.726 -2.912,-4.458 -5.638,-5.196 l -7.959,-2.321 -0.22,-4.532 z" /><path
         style="fill:#808080"
         id="path19"
         d="m 1785.746,315.262 c 0,16.803 -5.073,30.383 -15.218,40.735 -10.144,10.355 -23.036,15.532 -38.675,15.532 -15.272,0 -27.609,-4.882 -37.017,-14.647 -9.406,-9.765 -14.108,-22.532 -14.108,-38.304 0,-16.212 4.925,-29.46 14.773,-39.74 9.849,-10.281 22.888,-15.421 39.119,-15.421 15.345,0 27.701,4.735 37.07,14.204 9.37,9.471 14.056,22.018 14.056,37.641 z m -82.355,0.995 c 0,13.781 2.568,25.002 7.709,33.66 5.14,8.661 12.776,12.989 22.908,12.989 9.473,0 16.686,-3.813 21.643,-11.441 4.955,-7.627 7.434,-18.92 7.434,-33.882 0,-14.075 -2.606,-25.166 -7.819,-33.273 -5.213,-8.106 -12.776,-12.16 -22.688,-12.16 -9.398,0 -16.611,3.648 -21.641,10.944 -5.032,7.296 -7.546,18.349 -7.546,33.163 z" /><path
         style="fill:#808080"
         id="path21"
         d="m 1800.891,271.154 c 12.317,-2.357 24.033,-4.937 35.148,-7.737 l 1.11,0.773 0,12.934 c 13.634,-9.137 27.009,-13.707 40.128,-13.707 l 0.553,0.663 c -2.139,10.981 -4.239,22.368 -6.302,34.158 l -4.421,0.773 c -2.064,-6.263 -4.055,-11.293 -5.97,-15.089 -1.917,-3.795 -4.938,-5.693 -9.064,-5.693 -3.979,0 -8.954,1.843 -14.924,5.527 l 0,47.865 c 0,11.497 0.072,19.715 0.222,24.651 0.072,1.99 0.994,3.244 2.763,3.759 l 14.703,4.201 0.331,4.532 c -11.496,-0.222 -20.874,-0.332 -28.132,-0.332 -7.261,0 -15.828,0.11 -25.703,0.332 l -0.442,-4.532 12.823,-3.759 c 1.769,-0.589 2.689,-1.73 2.764,-3.427 0.073,-3.168 0.11,-7.7 0.11,-13.598 l 0,-37.695 c 0,-12.011 -0.148,-20.965 -0.441,-26.862 l -14.703,-3.979 -0.553,-3.758 z" /><path
         style="fill:#808080"
         id="path23"
         d="m 1885.236,213.34 -0.553,-3.647 c 13.057,-2.505 25.105,-5.121 36.146,-7.849 l 0.996,0.884 c -0.441,10.761 -0.663,27.453 -0.663,50.077 l 0,72.296 c 0,10.907 0.072,21.594 0.222,32.058 0.146,2.139 1.105,3.427 2.874,3.869 l 10.723,3.206 0.221,4.532 c -8.844,-0.222 -16.895,-0.332 -24.152,-0.332 -7.261,0 -15.828,0.11 -25.703,0.332 l -0.442,-4.532 13.045,-3.869 c 1.473,-0.515 2.283,-1.62 2.432,-3.316 0.146,-8.327 0.221,-17.613 0.221,-27.857 l 0,-45.434 c 0,-38.248 -0.148,-60.247 -0.441,-65.995 l -14.926,-4.423 z m 115.961,155.426 c -9.877,-0.222 -17.209,-0.332 -21.998,-0.332 -3.17,0 -7.37,0.072 -12.603,0.221 -2.728,-4.494 -5.969,-9.321 -9.728,-14.48 -10.17,-14.223 -21.114,-28.115 -32.832,-41.676 l 39.906,-38.69 -12.27,-3.427 -0.442,-4.422 c 9.507,0.222 16.507,0.332 21.003,0.332 4.053,0 11.754,-0.11 23.104,-0.332 l 0.441,4.532 c -7.444,1.917 -12.786,3.593 -16.028,5.03 -3.244,1.437 -7.039,4.184 -11.387,8.235 l -23.656,21.888 35.596,44.438 c 3.979,4.938 7.092,8.219 9.341,9.839 2.247,1.622 6.024,3.059 11.331,4.312 l 0.222,4.532 z" /><path
         style="fill:#808080"
         id="path25"
         d="m 2063.212,274.582 c -4.275,-1.179 -8.918,-1.77 -13.929,-1.77 -6.929,0 -12.511,1.346 -16.748,4.035 -4.238,2.691 -6.355,6.356 -6.355,10.999 0,4.496 1.382,8.033 4.145,10.612 2.764,2.581 7.904,5.123 15.421,7.628 l 9.065,3.095 c 10.17,3.465 17.632,7.426 22.385,11.884 4.754,4.46 7.13,10.3 7.13,17.521 0,10.244 -3.979,18.295 -11.938,24.153 -7.959,5.859 -18.019,8.789 -30.179,8.789 -11.203,0 -22.661,-2.285 -34.379,-6.854 2.504,-9.579 4.532,-18.939 6.08,-28.078 l 4.311,-0.663 7.96,23.767 c 4.2,1.622 9.543,2.433 16.028,2.433 6.854,0 12.326,-1.399 16.416,-4.201 4.09,-2.8 6.135,-6.743 6.135,-11.828 0,-4.715 -1.382,-8.438 -4.146,-11.165 -2.763,-2.726 -7.168,-5.085 -13.21,-7.074 l -11.496,-3.869 c -9.949,-3.316 -16.822,-7.313 -20.616,-11.994 -3.797,-4.68 -5.693,-10.482 -5.693,-17.411 0,-9.653 3.665,-17.262 10.999,-22.827 7.332,-5.563 17.005,-8.346 29.018,-8.346 11.201,0 21.372,1.621 30.511,4.863 -2.064,8.401 -3.943,17.283 -5.638,26.642 l -4.201,0.773 -7.076,-21.114 z" /></g><g
       transform="matrix(1.2241104,0,0,1.2241104,-12.502812,-168.96852)"
       id="g27"><linearGradient
         gradientTransform="matrix(1,0,0,-1,294,1005)"
         y2="658.62402"
         x2="389.1348"
         y1="658.62402"
         x1="-217.3042"
         gradientUnits="userSpaceOnUse"
         id="SVGID_1_"><stop
           id="stop30"
           style="stop-color:#7D8081"
           offset="0.0169" /><stop
           id="stop32"
           style="stop-color:#ADAEB1"
           offset="0.6124" /></linearGradient><path
         style="fill:url(#SVGID_1_)"
         id="path34"
         d="m 76.696,520.688 c 13.738,36.309 22.834,48.418 29.529,62.063 92.589,-92.592 460.736,-375.049 576.91,-427.248 -18.91,-22.174 -50.01,-45.502 -50.01,-45.502 0,0 -290.862,100.836 -372.521,182.496 C 131.653,365.606 76.696,520.688 76.696,520.688 Z" /><linearGradient
         gradientTransform="matrix(1,0,0,-1,294,1005)"
         y2="467.62109"
         x2="483.48001"
         y1="467.62109"
         x1="-83.752899"
         gradientUnits="userSpaceOnUse"
         id="SVGID_2_"><stop
           id="stop37"
           style="stop-color:#7D8081"
           offset="0.0169" /><stop
           id="stop39"
           style="stop-color:#ADAEB1"
           offset="0.6124" /></linearGradient><path
         style="fill:url(#SVGID_2_)"
         id="path41"
         d="m 210.247,694.567 c 0,0 13.87,9.336 20.413,13.524 7.308,4.685 26.772,14.847 26.772,14.847 0,0 132.986,-97.337 451.673,-273.154 65.459,-32.732 68.13,-34.463 68.13,-34.463 0.131,-26.775 0.543,-27.414 -0.132,-38.438 -0.675,-10.943 -2.541,-24.917 -2.541,-24.917 0,0 -97.432,-13.284 -453.942,211.123 -101.419,68.517 -110.373,131.478 -110.373,131.478 z" /><linearGradient
         gradientTransform="matrix(1,0,0,-1,294,1005)"
         y2="721.63281"
         x2="271.0166"
         y1="721.63281"
         x1="-238.2114"
         gradientUnits="userSpaceOnUse"
         id="SVGID_3_"><stop
           id="stop44"
           style="stop-color:#0084BF"
           offset="0" /><stop
           id="stop46"
           style="stop-color:#0097D0"
           offset="0.2785" /><stop
           id="stop48"
           style="stop-color:#00A0D9"
           offset="0.4944" /></linearGradient><path
         style="fill:url(#SVGID_3_)"
         id="path50"
         d="m 493.529,46.047 c -85.196,21.685 -301.403,92.31 -429.071,273.188 -23.059,106.293 6.54,183.25 12.238,201.453 0,0 171.465,-308.849 488.321,-450.774 -18.836,-9.391 -50.116,-19.642 -71.488,-23.867 z" /><linearGradient
         gradientTransform="matrix(1,0,0,-1,294,1005)"
         y2="579.96478"
         x2="456.99319"
         y1="579.96478"
         x1="-160.0928"
         gradientUnits="userSpaceOnUse"
         id="SVGID_4_"><stop
           id="stop53"
           style="stop-color:#0084BF"
           offset="0" /><stop
           id="stop55"
           style="stop-color:#0097D0"
           offset="0.2785" /><stop
           id="stop57"
           style="stop-color:#00A0D9"
           offset="0.4944" /></linearGradient><path
         style="fill:url(#SVGID_4_)"
         id="path59"
         d="m 683.135,155.503 c 0,0 42.763,43.736 67.858,107.178 -163.303,74.076 -478.454,297.209 -540.746,431.886 -50.095,-33.927 -76.34,-70.769 -76.34,-70.769 0,0 93.829,-265.423 549.228,-468.295 z" /><linearGradient
         gradientTransform="matrix(1,0,0,-1,294,1005)"
         y2="426.43549"
         x2="483.58789"
         y1="426.43549"
         x1="56.4697"
         gradientUnits="userSpaceOnUse"
         id="SVGID_5_"><stop
           id="stop62"
           style="stop-color:#0084BF"
           offset="0" /><stop
           id="stop64"
           style="stop-color:#0097D0"
           offset="0.2785" /><stop
           id="stop66"
           style="stop-color:#00A0D9"
           offset="0.4944" /></linearGradient><path
         style="fill:url(#SVGID_5_)"
         id="path68"
         d="M 350.47,753.952 C 656.614,513.905 768.488,480.124 768.488,480.124 c 0,0 1.918,-10.547 6.23,-34.055 2.916,-26.109 2.195,-26.251 2.87,-42.894 -10e-4,10e-4 -233.513,120.129 -427.118,350.777 z" /></g><path
       id="path3368"
       d="m 2995.5493,184.59446 0,342.88635"
       style="opacity:0.33500001;fill:#999999;fill-rule:evenodd;stroke:#000000;stroke-width:4.3959527;stroke-linecap:butt;stroke-linejoin:miter;stroke-miterlimit:4;stroke-dasharray:none;stroke-opacity:1" /><g
       id="text4170"
       style="font-style:normal;font-variant:normal;font-weight:normal;font-stretch:normal;font-size:275.95379639px;line-height:125%;font-family:'Booster Next FY';-inkscape-font-specification:'Booster Next FY';letter-spacing:0px;word-spacing:0px;fill:#0085af;fill-opacity:1;stroke:none;stroke-width:1px;stroke-linecap:butt;stroke-linejoin:miter;stroke-opacity:1"><text
         xml:space="preserve"
         style="font-style:normal;font-weight:normal;font-size:182.91438293px;line-height:125%;font-family:sans-serif;letter-spacing:0px;word-spacing:0px;fill:#0085af;fill-opacity:1;stroke:#0085af;stroke-width:3.02471828;stroke-linecap:butt;stroke-linejoin:miter;stroke-miterlimit:4;stroke-dasharray:none;stroke-opacity:1"
         x="3143.5994"
         y="435.60431"
         id="text3376"
         sodipodi:linespacing="125%"><tspan
           sodipodi:role="line"
           id="tspan3378"
           x="3143.5994"
           y="435.60431"
           style="font-style:normal;font-variant:normal;font-weight:normal;font-stretch:normal;font-size:274.37158203px;font-family:MuseoSansW01-Rounded100;-inkscape-font-specification:MuseoSansW01-Rounded100;fill:#0085af;fill-opacity:1;stroke:#0085af;stroke-width:3.02471828;stroke-miterlimit:4;stroke-dasharray:none;stroke-opacity:1">Apps</tspan></text>
</g></g></svg>